<svg font-family="system-ui, -apple-system, sans-serif" viewBox="0 0 1200 820" xmlns="http://www.w3.org/2000/svg"><text fill="#333" font-size="16" font-weight="700" x="20" y="26">FRAME 1 — Mode 1: Course view (low-fidelity wireframe)</text><path d="m20 40h880v760h-880z" fill="#fff" stroke="#444" stroke-width="2"/><path d="m20 40h880v52h-880z" fill="#f3f3f3" stroke="#999"/><text fill="#333" font-size="15" font-weight="700" x="36" y="72">learn-sociology</text><rect fill="#dedede" height="28" rx="4" stroke="#555" width="86" x="200" y="52"/><text fill="#333" font-size="13" font-weight="600" text-anchor="middle" x="243" y="71">Course</text><rect fill="#fafafa" height="28" rx="4" stroke="#bbb" width="86" x="292" y="52"/><text fill="#333" font-size="13" text-anchor="middle" x="335" y="71">Hierarchy</text><rect fill="#fafafa" height="28" rx="4" stroke="#bbb" width="86" x="384" y="52"/><text fill="#aaa" font-size="13" text-anchor="middle" x="427" y="71">Network</text><rect fill="#fafafa" height="28" rx="4" stroke="#bbb" width="98" x="476" y="52"/><text fill="#aaa" font-size="13" text-anchor="middle" x="525" y="71">Sociologists</text><rect fill="#fafafa" height="28" rx="14" stroke="#bbb" width="180" x="700" y="52"/><text fill="#888" font-size="12" x="716" y="71">Search title / summary…</text><path d="m20 92h280v708h-280z" fill="#fafafa" stroke="#bbb"/><text fill="#333" font-size="14" font-weight="700" x="36" y="120">Introduction to Sociology</text><path d="m32 134h256v26h-256z" fill="#f3f3f3" stroke="#999"/><text fill="#333" font-size="12" font-weight="600" x="42" y="152">▾ Module 1 · Intro to Sociology</text><text fill="#888" font-size="12.5" x="52" y="180">✓ What Is Sociology?</text><text fill="#888" font-size="12.5" x="52" y="202">✓ The Sociological Imagination</text><text fill="#888" font-size="12.5" x="52" y="224">✓ Micro, Meso, and Macro Levels…</text><rect fill="#dedede" height="24" rx="3" stroke="#555" width="244" x="44" y="234"/><text fill="#333" font-size="12.5" font-weight="700" x="52" y="251">● Theoretical Paradigms in Sociology</text><text fill="#333" font-size="12.5" x="52" y="280">○ Structural Functionalism</text><text fill="#333" font-size="12.5" x="52" y="302">○ Conflict Theory</text><text fill="#333" font-size="12.5" x="52" y="324">○ Symbolic Interactionism</text><path d="m32 340h256v26h-256z" fill="#f3f3f3" stroke="#999"/><text fill="#333" font-size="12.5" x="42" y="358">▸ Module 2 · Sociological Research (6)</text><path d="m32 372h256v26h-256z" fill="#f3f3f3" stroke="#999"/><text fill="#333" font-size="12.5" x="42" y="390">▸ Module 3 · Culture (…)</text><path d="m32 404h256v26h-256z" fill="#f3f3f3" stroke="#999"/><text fill="#333" font-size="12.5" x="42" y="422">▸ Module 4 · Society and Groups (…)</text><text fill="#888" font-size="12.5" x="42" y="452">⋮</text><rect fill="#fafafa" height="10" rx="5" stroke="#bbb" width="256" x="32" y="742"/><rect fill="#d9d9d9" height="10" rx="5" width="62" x="32" y="742"/><text fill="#888" font-size="12" x="32" y="772">12 of 50 lessons complete</text><text fill="#888" font-size="12" x="330" y="126">Module 1 · Lesson 4 of 7</text><text fill="#333" font-size="22" font-weight="700" x="330" y="158">Theoretical Paradigms in Sociology</text><rect fill="#fafafa" height="20" rx="10" stroke="#bbb" width="80" x="330" y="172"/><text fill="#888" font-size="11" text-anchor="middle" x="370" y="186">intro</text><path d="m330 206h540v470h-540z" fill="#fafafa" stroke="#bbb" stroke-dasharray="6 4"/><text fill="#888" font-size="13" text-anchor="middle" x="600" y="236">[ NODE PAGE — see Frame 3 ]</text><g fill="#d9d9d9"><path d="m350 256h500v10h-500z"/><path d="m350 276h470v10h-470z"/><path d="m350 296h490v10h-490z"/><path d="m350 330h180v12h-180z"/><path d="m350 356h500v10h-500z"/><path d="m350 376h440v10h-440z"/><path d="m350 396h480v10h-480z"/><path d="m350 430h180v12h-180z"/><path d="m350 456h500v10h-500z"/><path d="m350 476h460v10h-460z"/></g><rect fill="#f3f3f3" height="44" rx="4" stroke="#999" width="250" x="330" y="700"/><text fill="#888" font-size="11" x="346" y="719">← Previous</text><text fill="#333" font-size="12.5" x="346" y="736">Micro, Meso, and Macro Levels…</text><rect fill="#f3f3f3" height="44" rx="4" stroke="#999" width="250" x="620" y="700"/><text fill="#888" font-size="11" text-anchor="end" x="854" y="719">Next →</text><text fill="#333" font-size="12.5" text-anchor="end" x="854" y="736">Structural Functionalism</text><path d="m300 300c20 0 610-40 630-50" fill="none" stroke="#4a6fa5" stroke-dasharray="4 3" stroke-width="1.2"/><text fill="#4a6fa5" font-size="12" font-style="italic" x="935" y="230">Syllabus rendered by walking</text><text fill="#4a6fa5" font-size="12" font-style="italic" x="935" y="246">content/course.yaml in order —</text><text fill="#4a6fa5" font-size="12" font-style="italic" x="935" y="262">sequence is a course property,</text><text fill="#4a6fa5" font-size="12" font-style="italic" x="935" y="278">never node frontmatter.</text><path d="m290 748c30 0 620-108 640-118" fill="none" stroke="#4a6fa5" stroke-dasharray="4 3" stroke-width="1.2"/><text fill="#4a6fa5" font-size="12" font-style="italic" x="935" y="612">Checkmarks + progress bar are</text><text fill="#4a6fa5" font-size="12" font-style="italic" x="935" y="628">client-side local storage only.</text><text fill="#4a6fa5" font-size="12" font-style="italic" x="935" y="644">Accounts / verification deferred.</text><path d="m745 722c55 38 165 8 185-2" fill="none" stroke="#4a6fa5" stroke-dasharray="4 3" stroke-width="1.2"/><text fill="#4a6fa5" font-size="12" font-style="italic" x="935" y="700">Prev/Next labels = adjacent</text><text fill="#4a6fa5" font-size="12" font-style="italic" x="935" y="716">nodes' `title`. Build check ensures</text><text fill="#4a6fa5" font-size="12" font-style="italic" x="935" y="732">manifest never orders a node</text><text fill="#4a6fa5" font-size="12" font-style="italic" x="935" y="748">before its `prerequisites`.</text><path d="m525 66c75-36 385 34 405 44" fill="none" stroke="#4a6fa5" stroke-dasharray="4 3" stroke-width="1.2"/><text fill="#4a6fa5" font-size="12" font-style="italic" x="935" y="120">Modes 3–4 shown disabled, not</text><text fill="#4a6fa5" font-size="12" font-style="italic" x="935" y="136">hidden: the UI advertises the</text><text fill="#4a6fa5" font-size="12" font-style="italic" x="935" y="152">four-mode roadmap honestly.</text></svg>